<svg xmlns="http://www.w3.org/2000/svg" viewBox="0 0 400 120" fill="none">
  <rect x="4" y="14" width="392" height="92" rx="46" stroke="#22D3EE" stroke-width="3" fill="#0a1628"/>
  <g transform="translate(28,22)">
    <path d="M38 8 C28 8 20 16 20 28 L20 48 C20 58 16 72 22 82 C26 88 32 86 36 78 L40 68 L44 78 C48 86 54 88 58 82 C64 72 60 58 60 48 L60 28 C60 16 52 8 42 8 Z" stroke="#22D3EE" stroke-width="2" fill="#22D3EE" fill-opacity="0.15"/>
    <g stroke="#22D3EE" stroke-width="0.8" opacity="0.7">
      <path d="M28 20 H52"/><path d="M26 32 H54"/><path d="M26 44 H54"/><path d="M30 56 H50"/>
      <path d="M32 14 V70"/><path d="M40 12 V74"/><path d="M48 14 V70"/>
    </g>
    <path d="M8 40 H18 L22 30 L28 52 L34 22 L40 58 L46 22 L52 52 L58 30 L62 40 H72" stroke="#22D3EE" stroke-width="2.2" stroke-linecap="round" stroke-linejoin="round"/>
  </g>
  <text x="120" y="72" font-family="system-ui,Segoe UI,sans-serif" font-size="36" font-weight="700">
    <tspan fill="#FFFFFF">Practice</tspan><tspan fill="#22D3EE">Guard</tspan>
  </text>
</svg>
